<?xml version="1.0" encoding="utf-8"?>
<!-- Generator: Adobe Illustrator 19.2.1, SVG Export Plug-In . SVG Version: 6.00 Build 0)  -->
<!DOCTYPE svg PUBLIC "-//W3C//DTD SVG 1.1 Tiny//EN" "http://www.w3.org/Graphics/SVG/1.1/DTD/svg11-tiny.dtd">
<svg version="1.1" baseProfile="tiny" id="Layer_1" xmlns="http://www.w3.org/2000/svg" xmlns:xlink="http://www.w3.org/1999/xlink"
	 x="0px" y="0px" viewBox="0 0 200 200" xml:space="preserve">
<g>
	<circle fill="#C5308A" cx="100" cy="100" r="100"/>
	<g>
		<path fill="#FFFFFF" d="M107.6,80.5c-10.5,0-20.4-1.4-27.9-3.9c-5-1.7-8.2-3.6-10.2-5.5v33.4c0.5-0.9,1.2-1.7,1.9-2.4
			c2.2-1.8,4.9-2.1,7.2-2.1c0.7,0,1.4,0,2.1,0c0.7,0,1.4,0,2.1,0c0.9,0,1.6,0,2.3-0.1c0.2,0,0.4,0,0.6,0c1.8,0,3.4,1.1,4.1,2.7
			c0.5,1.3,1.3,2.5,2.1,3.8c1.3,2,2.6,4.1,2.9,6.6c0.4,3.1-0.8,5.9-3.7,8.3c-0.1,0-0.1,0.1-0.2,0.2c0,0-0.1,0.1-0.1,0.1
			c0,0,0.1,0,0.1,0c0.7-0.1,1.3-0.1,1.9-0.1c3.1,0,5.5,1.2,7.2,3.5c1.3,1.8,1.9,3.9,2.5,5.9c0.4,1.5,0.9,2.9,1.5,4.1
			c0.9,1.8,0.5,4-1.1,5.3c0,0-0.1,0.1-0.2,0.1c1.6,0.1,3.2,0.1,4.8,0.1c21,0,38.1-5.7,38.1-12.8v-8.9c-7.1,8.8-25,10-32.9,10.1
			c-2.1,0-3.8-1.7-3.8-3.8V95.3c0-2,1.6-3.7,3.6-3.8c8-0.4,27.3-2.2,33.2-8.9V71.1c-2,1.9-5.2,3.8-10.2,5.5
			C128,79.1,118.1,80.5,107.6,80.5L107.6,80.5z M107.6,80.5"/>
		<path fill="#FFFFFF" d="M107.6,42.3c-19,0-34.7,4.7-37.6,10.7c0.4,2.9,4.2,5.9,10.4,8.3c5.1,1.9,11.5,3.2,18.3,3.9
			c2.9,0.2,5.8,0.4,8.8,0.4c3,0,6-0.1,8.8-0.4c6.9-0.6,13.2-1.9,18.3-3.9c6.2-2.3,10-5.4,10.4-8.3C142.3,46.9,126.6,42.3,107.6,42.3
			L107.6,42.3z M107.6,42.3"/>
		<path fill="#FFFFFF" d="M135.9,64.2c-0.9,0.3-1.8,0.7-2.8,1c-7.2,2.3-16.1,3.5-25.5,3.5c-9.3,0-18.3-1.2-25.5-3.5
			c-1-0.3-1.9-0.6-2.8-1c-4.4-1.6-7.7-3.6-9.8-5.8v6.3c0,0.2,0,0.4,0,0.5c0.9,6.8,17.6,12.2,38.1,12.2s37.2-5.4,38.1-12.2
			c0-0.2,0-0.4,0-0.5v-6.3C143.6,60.5,140.3,62.5,135.9,64.2L135.9,64.2z M135.9,64.2"/>
		<path fill="#FFFFFF" d="M43,114.4c0,0,0-0.1,0-0.1c0.2-0.6,0.7-2.2,1-4.1c0.3-1.5,0.6-3.6,0.4-5c-0.1-0.4-0.3-0.7-0.7-0.9
			c-0.4-0.1-0.8,0-1.1,0.3l-5.1,5.4c0,0,0,0-0.1,0c0,0,0,0,0-0.1c0,0,0,0,0,0l4.2-6.1c0.1-0.1,0.1-0.2,0.1-0.3c0.1-0.3,0-0.7-0.2-1
			c-0.2-0.3-0.5-0.4-0.9-0.4c-2.8,0.1-7.6,2.7-8.7,3.4c-1.2,0.7-1.9,1.5-2.2,2.4c-0.5,1.5,0.2,3.2,0.9,5c0.4,1,0.9,2.1,1.1,3.2
			c0.1,0.4,0.4,0.7,0.8,0.7c1.1,0,2.3,0.2,3.3,0.4C38.9,117.7,41.6,118.2,43,114.4L43,114.4z M43,114.4"/>
		<path fill="#FFFFFF" d="M58.5,95l-6.8,3.1c-0.3,0.1-0.5,0.3-0.6,0.6c-0.2,0.5,0,1.1,0.5,1.3c2.4,1.3,7.9,1.6,9.2,1.6
			c2.3,0,3.7-0.9,4.3-2.8c0.3-0.9,0.4-1.8,0.6-2.9c0.1-1.1,0.3-2.2,0.6-3.3c0.1-0.4,0-0.8-0.4-1c-1-0.6-1.8-1.4-2.6-2.1
			c-2.2-1.9-4.3-3.8-7.4-1.2c-1,0.8-5,4.6-6,7.2c-0.1,0.4-0.1,0.8,0.2,1.1c0.3,0.3,0.7,0.4,1.1,0.3l7.2-2.1
			C58.5,94.8,58.6,94.9,58.5,95C58.6,94.9,58.6,94.9,58.5,95C58.6,94.9,58.6,95,58.5,95L58.5,95z M58.5,95"/>
		<path fill="#FFFFFF" d="M48.8,79.3c-1-0.5-2-1-2.9-1.7c-0.3-0.2-0.8-0.2-1.1,0c-0.9,0.7-1.9,1.3-2.8,1.8c-1.7,0.9-3.2,1.8-3.8,3.4
			c-0.3,0.9-0.2,2,0.3,3.3c0.5,1.2,2.8,6.2,4.9,8c0.3,0.2,0.6,0.3,1,0.2c0.3-0.1,0.6-0.4,0.7-0.7c0-0.1,0-0.2,0.1-0.3l0.4-7.4v0
			c0,0,0.1,0,0.1,0c0,0,0,0,0,0l0.8,7.4c0,0.4,0.3,0.8,0.7,0.9c0.4,0.1,0.8,0.1,1.1-0.2c1.1-1,2.1-2.8,2.8-4.2
			c0.9-1.7,1.5-3.3,1.7-3.9c0,0,0-0.1,0-0.1C53.9,81.9,51.4,80.6,48.8,79.3L48.8,79.3z M48.8,79.3"/>
		<path fill="#FFFFFF" d="M57.3,116C57.3,116,57.3,115.9,57.3,116C57.3,115.9,57.4,116,57.3,116l7.9,7.5c0.3,0.3,0.7,0.4,1.1,0.4
			c0.4,0,0.7-0.1,1-0.4c0.3-0.2,0.5-0.6,0.5-1c0.5-4-2-11.5-2.7-13.3c-1.4-3.4-3.4-4.3-5.7-4.3c-1.4,0-3,0.4-4.6,0.8
			c-1.6,0.4-3.2,0.8-4.8,0.9c-0.3,0-0.5,0.1-0.7,0.3c-0.2,0.2-0.4,0.5-0.4,0.7c-0.3,1.6-0.9,3.2-1.4,4.7c-1.5,4-2.9,7.8,2.3,10.6
			c1.7,0.9,8.9,4.3,12.9,4.3h0c0.4,0,0.7-0.1,1-0.3c0.6-0.5,0.8-1.5,0.2-2.2l-6.5-8.6C57.2,116.1,57.2,116,57.3,116L57.3,116z
			 M57.3,116"/>
		<path fill="#FFFFFF" d="M74.1,138.4c-0.3-0.3-0.7-0.4-1-0.4c-0.4,0-0.7,0.1-1,0.4c-0.3,0.3-0.5,0.7-0.6,1.1l-0.7,10.8
			c0,0,0,0,0,0.1c0,0,0,0-0.1,0c0,0,0,0,0,0c0,0,0,0,0-0.1l-0.9-10.8c0-0.6-0.4-1.1-1-1.3c-0.2-0.1-0.4-0.1-0.6-0.1
			c-0.4,0-0.7,0.1-1,0.4c-3,2.7-6,10-6.7,11.8c-1.9,5.6,1.7,7.5,5.4,9.4c1.4,0.7,2.9,1.5,4.2,2.5c0.2,0.2,0.5,0.3,0.8,0.3
			c0.3,0,0.6-0.1,0.8-0.3c1.3-1,2.7-1.8,4.1-2.6c1.3-0.7,2.6-1.4,3.6-2.3c2.2-1.9,2.7-4.1,1.6-7.3C80.4,148.2,77.1,141,74.1,138.4
			L74.1,138.4z M74.1,138.4"/>
		<path fill="#FFFFFF" d="M63.9,135.1c-0.3-0.3-0.7-0.5-1.2-0.5c-0.1,0-0.3,0-0.4,0l-10.4,2.8h0c0,0,0,0-0.1,0c0,0,0-0.1,0-0.1
			c0,0,0,0,0,0l9.9-4.4c0.1-0.1,0.3-0.1,0.4-0.2c0.4-0.3,0.6-0.8,0.5-1.4c0-0.5-0.3-1-0.8-1.2c-3.5-1.9-11.3-2.5-13.3-2.5h0
			c-2,0-3.5,0.4-4.6,1.3c-1.8,1.5-2.2,4.1-2.6,6.8c-0.2,1.6-0.5,3.2-1,4.8c-0.2,0.5,0,1.2,0.5,1.5c1.4,0.9,2.6,2,3.8,3.1
			c2,1.9,4,3.7,6.4,3.7c1.3,0,2.7-0.5,4.3-1.8c0,0,0.1-0.1,0.1-0.1c0.7-0.6,2.5-2.2,4.4-4.3c1.5-1.6,3.5-4,4.3-6
			C64.4,136.2,64.3,135.5,63.9,135.1L63.9,135.1z M63.9,135.1"/>
		<path fill="#FFFFFF" d="M75.6,123.6c-0.3,0.5-0.2,1.2,0.2,1.6c0.3,0.4,0.7,0.6,1.2,0.6c0.1,0,0.2,0,0.3,0c2.1-0.4,4.8-1.9,6.6-3.1
			c2.4-1.5,4.3-3,5-3.5c0,0,0.1-0.1,0.1-0.1c4.5-3.9,2.4-7.3,0.2-10.9c-0.8-1.4-1.7-2.8-2.3-4.3c-0.2-0.5-0.7-0.8-1.2-0.8
			c-0.1,0-0.1,0-0.2,0c-0.9,0.1-1.8,0.2-2.7,0.2c-0.7,0-1.5,0-2.2,0c-0.7,0-1.3,0-2,0c-2,0-3.8,0.2-5.2,1.4
			c-1.1,0.9-1.8,2.3-2.2,4.2c-0.4,1.9-1.3,9.8,0,13.6c0.2,0.5,0.5,0.9,1,1c0.1,0,0.3,0.1,0.4,0.1c0.4,0,0.7-0.1,1-0.4
			c0.1-0.1,0.2-0.2,0.3-0.3l6.1-8.9c0,0,0,0,0,0c0,0,0,0,0,0c0,0,0.1,0,0.1,0c0,0,0,0.1,0,0.1L75.6,123.6z M75.6,123.6"/>
		<path fill="#FFFFFF" d="M99.6,131.8c-1.1-3.7-2.2-7.2-6.8-7.2c-0.5,0-1,0-1.5,0.1c-1.9,0.3-9.7,2-12.9,4.4c-0.5,0.4-0.7,1-0.6,1.6
			c0.1,0.6,0.5,1,1.1,1.2l10.4,2.9c0,0,0,0,0.1,0c0,0,0,0.1,0,0.1c0,0,0,0,0,0h0l-10.7-1.3c-0.1,0-0.1,0-0.2,0c-0.4,0-0.7,0.1-1,0.4
			c-0.4,0.3-0.6,0.9-0.6,1.4c0,0.2,0.1,0.4,0.2,0.6c2,3.4,8.5,8,10.2,9c1.4,0.8,2.7,1.2,3.8,1.2c1.3,0,2.5-0.5,3.6-1.5
			c1-0.8,1.9-2,2.9-3.1c0.4-0.4,0.7-0.9,1.1-1.4c0.7-0.8,1.4-1.6,2.2-2.2c0.4-0.4,0.6-1,0.3-1.5C100.5,135,100.1,133.4,99.6,131.8
			L99.6,131.8z M99.6,131.8"/>
		<path fill="#FFFFFF" d="M69.5,125.9c-0.6,0.1-1.3,0.3-1.9,0.6c-2.1,1.3-2.7,4-1.5,6c0.8,1.4,2.3,2.1,3.8,2.1
			c0.8,0,1.6-0.2,2.3-0.6c0.4-0.2,0.7-0.5,1-0.8c1.3-1.4,1.5-3.5,0.5-5.2c-0.8-1.4-2.3-2.1-3.8-2.1
			C69.8,125.9,69.7,125.9,69.5,125.9L69.5,125.9z M69.5,125.9"/>
	</g>
</g>
</svg>
