<?xml version="1.0" encoding="utf-8"?>
<!-- Generator: Adobe Illustrator 19.2.1, SVG Export Plug-In . SVG Version: 6.00 Build 0)  -->
<!DOCTYPE svg PUBLIC "-//W3C//DTD SVG 1.1 Tiny//EN" "http://www.w3.org/Graphics/SVG/1.1/DTD/svg11-tiny.dtd">
<svg version="1.1" baseProfile="tiny" id="Layer_1" xmlns="http://www.w3.org/2000/svg" xmlns:xlink="http://www.w3.org/1999/xlink"
	 x="0px" y="0px" viewBox="0 0 200 200" xml:space="preserve">
<g>
	<circle fill="#C5308A" cx="100" cy="100" r="100"/>
	<g>
		<path fill="#FFFFFF" d="M115.1,155c-6.5-4.5-14.6-5.3-17.3,0c0,0-11.6-6.9-18.9,0c-7.3,6.9-16.2,0-16.2,0s1.2,18.7,34.9,8.1
			c0,0,21.1,8.9,35.3-4.9C133,158.3,121.6,159.5,115.1,155z"/>
		<path fill="#FFFFFF" d="M43.4,117.6c0,0-0.8-4.7,2.3-17.9c3.1-13.2,20.5-25.1,20.5-25.1c3.2,6.7-7.1,13.6-7.1,13.6
			c8.7-1.7,27.3-16.5,27.3-16.5c-2,8.6-8,12.3-8,12.3c8-1.1,16.7-8.4,16.7-8.4c0.2,3.2-2.2,7.8-2.2,7.8c3.5-1.5,8.6-4.8,8.6-4.8
			c-0.4,3.7-5,11.7-5,11.7c11.6-6.9,22.1-15.8,22.1-15.8c-1.7,5.2-7.1,12.1-7.1,12.1c6-1.5,14.5-12.3,14.5-12.3l0.2,7.2l4.8-7.4
			l-1.7,5.9l4.8-4.8l-0.7,7.1c1.7-1.3,5-8,5-8c1.3,3.9,0.2,20.3,0.2,20.3l4.1-6.9c2.7,10.2-4.5,27-4.5,27l6.4-9.2
			c1.5,9.4-6.9,25.8-6.9,25.8c3.5-3.2,11.7-21.8,11.7-21.8l0.2,10.4l3.2-8.7l0.7,6.4C178,80.7,149,47.4,149,47.4
			c3.7,1,8.4,4.5,8.4,4.5C150.2,36.3,135.6,38,135.6,38c1.7-4.5,10.4-5,10.4-5c-10.2-5-27.5,4.5-27.5,4.5
			C105,32.1,86,33.1,69.3,41.1C56.1,42.1,38.8,52,38.8,52c5.9-3,13.2-3.9,19.1-4.1c-0.6,0.5-1.3,1-1.9,1.5
			c-5.3,0.9-11.6,2.6-17.2,6.1c0,0,5.3-3,12.4-2.2c-8.7,3.6-15.2,14-15.2,14c1.6-1.5,3.3-2.7,4.9-3.7c-5.1,5.5-7.5,15.7-8.3,19.9
			c0.7-2.8,2.6-6,4.7-8.9C27.9,98.7,43.4,117.6,43.4,117.6z"/>
	</g>
</g>
</svg>
