<?xml version="1.0" encoding="utf-8"?>
<!-- Generator: Adobe Illustrator 19.2.1, SVG Export Plug-In . SVG Version: 6.00 Build 0)  -->
<!DOCTYPE svg PUBLIC "-//W3C//DTD SVG 1.1 Tiny//EN" "http://www.w3.org/Graphics/SVG/1.1/DTD/svg11-tiny.dtd">
<svg version="1.1" baseProfile="tiny" id="Layer_1" xmlns="http://www.w3.org/2000/svg" xmlns:xlink="http://www.w3.org/1999/xlink"
	 x="0px" y="0px" viewBox="0 0 200 200" xml:space="preserve">
<g>
	<circle fill="#C5308A" cx="100" cy="100" r="100"/>
	<path fill="#FFFFFF" d="M155.4,56.5c0,0-6.2-29.1-48.2-30.3c0,0-36.3-0.9-57.1,34.5c0,0-47.6,68.1-13.1,91.9c0,0-9.8-37.2,2.1-48.5
		c0,0-7.1,31.5,4.5,50.3c0,0-4.2-34.5,8-52c0,0-14.3,40.7,3,55.9c0,0-1.2-1.5,2.2-5.8c0,0-0.7,6.4,17.6,5.8c0,0-4.1-6.2-2.2-6.8
		c0,0,1.6,2.5,12,3.1c0,0-26-52.5-8.4-87c0,0-6.6,26.2,14.3,82.4c0,0-22.5-67-6.4-84.6c0,0,2,5.5-0.6,11.7c0,0,9-11,8.6-18.4
		c0,0,3.7,8.1-4.1,17.7c0,0,12.2-6.8,18.1-16.2c0,0-0.4,9.2-10.5,18.2c0,0,18.1-7.7,21.8-19.3c0,0,3.7,10.3-7.5,22.4
		c0,0,23-13.9,21.3-24.1c0,0,2.8,9.3-2.9,18c0,0,14-6.9,12.6-19.6c0,0,4.6,8.5-3.7,21.4c0,0,10.8-2.7,12.5-10
		c0,0,12.7,38.6-12.4,76.2c0,0,11.4-12.7,15-24.7c0,0-3.4,22.3-19.5,36.3c0,0,18.5-9.4,25.5-36.9c0,0,0.4,19.3-14.4,36.3
		c0,0,10.1,1.1,16.1-10.3c0,0,0,7.7-2.1,10.7c0,0,7.7-4.7,6.6-38.9c0,0,6.6,19.3-0.7,35C163.1,150.9,190.9,124.1,155.4,56.5z"/>
</g>
</svg>
